<svg id="visual" viewBox="0 0 900 600" width="900" height="600" xmlns="http://www.w3.org/2000/svg" xmlns:xlink="http://www.w3.org/1999/xlink" version="1.1"><rect x="0" y="0" width="900" height="600" fill="#171531"></rect><path d="M189 600L192.8 585.7C196.7 571.3 204.3 542.7 226 514.2C247.7 485.7 283.3 457.3 291 428.8C298.7 400.3 278.3 371.7 265.7 343C253 314.3 248 285.7 254 257C260 228.3 277 199.7 293.2 171.2C309.3 142.7 324.7 114.3 335 85.8C345.3 57.3 350.7 28.7 353.3 14.3L356 0L900 0L900 14.3C900 28.7 900 57.3 900 85.8C900 114.3 900 142.7 900 171.2C900 199.7 900 228.3 900 257C900 285.7 900 314.3 900 343C900 371.7 900 400.3 900 428.8C900 457.3 900 485.7 900 514.2C900 542.7 900 571.3 900 585.7L900 600Z" fill="#25204d"></path><path d="M515 600L511.5 585.7C508 571.3 501 542.7 487.8 514.2C474.7 485.7 455.3 457.3 445.3 428.8C435.3 400.3 434.7 371.7 438.5 343C442.3 314.3 450.7 285.7 439.7 257C428.7 228.3 398.3 199.7 388.7 171.2C379 142.7 390 114.3 409.2 85.8C428.3 57.3 455.7 28.7 469.3 14.3L483 0L900 0L900 14.3C900 28.7 900 57.3 900 85.8C900 114.3 900 142.7 900 171.2C900 199.7 900 228.3 900 257C900 285.7 900 314.3 900 343C900 371.7 900 400.3 900 428.8C900 457.3 900 485.7 900 514.2C900 542.7 900 571.3 900 585.7L900 600Z" fill="#342c74"></path><path d="M551 600L542.3 585.7C533.7 571.3 516.3 542.7 510.5 514.2C504.7 485.7 510.3 457.3 506.5 428.8C502.7 400.3 489.3 371.7 476.3 343C463.3 314.3 450.7 285.7 449.8 257C449 228.3 460 199.7 487 171.2C514 142.7 557 114.3 576.2 85.8C595.3 57.3 590.7 28.7 588.3 14.3L586 0L900 0L900 14.3C900 28.7 900 57.3 900 85.8C900 114.3 900 142.7 900 171.2C900 199.7 900 228.3 900 257C900 285.7 900 314.3 900 343C900 371.7 900 400.3 900 428.8C900 457.3 900 485.7 900 514.2C900 542.7 900 571.3 900 585.7L900 600Z" fill="#44399d"></path><path d="M651 600L647.3 585.7C643.7 571.3 636.3 542.7 627.2 514.2C618 485.7 607 457.3 597.3 428.8C587.7 400.3 579.3 371.7 579.3 343C579.3 314.3 587.7 285.7 594 257C600.3 228.3 604.7 199.7 616.7 171.2C628.7 142.7 648.3 114.3 647.2 85.8C646 57.3 624 28.7 613 14.3L602 0L900 0L900 14.3C900 28.7 900 57.3 900 85.8C900 114.3 900 142.7 900 171.2C900 199.7 900 228.3 900 257C900 285.7 900 314.3 900 343C900 371.7 900 400.3 900 428.8C900 457.3 900 485.7 900 514.2C900 542.7 900 571.3 900 585.7L900 600Z" fill="#5646c8"></path><path d="M733 600L737.5 585.7C742 571.3 751 542.7 763.3 514.2C775.7 485.7 791.3 457.3 793.8 428.8C796.3 400.3 785.7 371.7 767.2 343C748.7 314.3 722.3 285.7 719.2 257C716 228.3 736 199.7 753 171.2C770 142.7 784 114.3 786.3 85.8C788.7 57.3 779.3 28.7 774.7 14.3L770 0L900 0L900 14.3C900 28.7 900 57.3 900 85.8C900 114.3 900 142.7 900 171.2C900 199.7 900 228.3 900 257C900 285.7 900 314.3 900 343C900 371.7 900 400.3 900 428.8C900 457.3 900 485.7 900 514.2C900 542.7 900 571.3 900 585.7L900 600Z" fill="#6a53f4"></path></svg>