<svg xmlns="http://www.w3.org/2000/svg" version="1.1" xmlns:xlink="http://www.w3.org/1999/xlink" xmlns:svgjs="http://svgjs.dev/svgjs" width="1440" height="560" preserveAspectRatio="none" viewBox="0 0 1440 560"><g mask="url(&quot;#SvgjsMask1009&quot;)" fill="none"><path d="M411 67L410 -142" stroke-width="6" stroke="url(&quot;#SvgjsLinearGradient1010&quot;)" stroke-linecap="round" class="Down"></path><path d="M568 149L567 371" stroke-width="6" stroke="url(&quot;#SvgjsLinearGradient1010&quot;)" stroke-linecap="round" class="Down"></path><path d="M432 441L431 221" stroke-width="8" stroke="url(&quot;#SvgjsLinearGradient1010&quot;)" stroke-linecap="round" class="Down"></path><path d="M218 200L217 400" stroke-width="6" stroke="url(&quot;#SvgjsLinearGradient1011&quot;)" stroke-linecap="round" class="Up"></path><path d="M1232 427L1231 157" stroke-width="6" stroke="url(&quot;#SvgjsLinearGradient1011&quot;)" stroke-linecap="round" class="Up"></path><path d="M548 101L547 448" stroke-width="8" stroke="url(&quot;#SvgjsLinearGradient1010&quot;)" stroke-linecap="round" class="Down"></path><path d="M128 174L127 -62" stroke-width="8" stroke="url(&quot;#SvgjsLinearGradient1010&quot;)" stroke-linecap="round" class="Down"></path><path d="M417 542L416 321" stroke-width="8" stroke="url(&quot;#SvgjsLinearGradient1011&quot;)" stroke-linecap="round" class="Up"></path><path d="M261 268L260 -120" stroke-width="8" stroke="url(&quot;#SvgjsLinearGradient1010&quot;)" stroke-linecap="round" class="Down"></path><path d="M1044 321L1043 141" stroke-width="6" stroke="url(&quot;#SvgjsLinearGradient1010&quot;)" stroke-linecap="round" class="Down"></path><path d="M1405 279L1404 486" stroke-width="10" stroke="url(&quot;#SvgjsLinearGradient1010&quot;)" stroke-linecap="round" class="Down"></path><path d="M102 90L101 -127" stroke-width="10" stroke="url(&quot;#SvgjsLinearGradient1010&quot;)" stroke-linecap="round" class="Down"></path><path d="M1366 253L1365 568" stroke-width="8" stroke="url(&quot;#SvgjsLinearGradient1010&quot;)" stroke-linecap="round" class="Down"></path><path d="M319 69L318 334" stroke-width="6" stroke="url(&quot;#SvgjsLinearGradient1010&quot;)" stroke-linecap="round" class="Down"></path><path d="M643 439L642 201" stroke-width="10" stroke="url(&quot;#SvgjsLinearGradient1010&quot;)" stroke-linecap="round" class="Down"></path><path d="M910 385L909 743" stroke-width="8" stroke="url(&quot;#SvgjsLinearGradient1010&quot;)" stroke-linecap="round" class="Down"></path><path d="M58 275L57 -134" stroke-width="10" stroke="url(&quot;#SvgjsLinearGradient1011&quot;)" stroke-linecap="round" class="Up"></path><path d="M637 3L636 409" stroke-width="6" stroke="url(&quot;#SvgjsLinearGradient1010&quot;)" stroke-linecap="round" class="Down"></path><path d="M704 10L703 -191" stroke-width="6" stroke="url(&quot;#SvgjsLinearGradient1011&quot;)" stroke-linecap="round" class="Up"></path><path d="M1032 169L1031 -53" stroke-width="8" stroke="url(&quot;#SvgjsLinearGradient1010&quot;)" stroke-linecap="round" class="Down"></path><path d="M666 258L665 488" stroke-width="10" stroke="url(&quot;#SvgjsLinearGradient1010&quot;)" stroke-linecap="round" class="Down"></path><path d="M1302 211L1301 437" stroke-width="10" stroke="url(&quot;#SvgjsLinearGradient1011&quot;)" stroke-linecap="round" class="Up"></path><path d="M668 225L667 535" stroke-width="8" stroke="url(&quot;#SvgjsLinearGradient1011&quot;)" stroke-linecap="round" class="Up"></path><path d="M1066 367L1065 188" stroke-width="8" stroke="url(&quot;#SvgjsLinearGradient1010&quot;)" stroke-linecap="round" class="Down"></path><path d="M107 179L106 591" stroke-width="10" stroke="url(&quot;#SvgjsLinearGradient1011&quot;)" stroke-linecap="round" class="Up"></path><path d="M908 490L907 211" stroke-width="6" stroke="url(&quot;#SvgjsLinearGradient1010&quot;)" stroke-linecap="round" class="Down"></path><path d="M1130 521L1129 804" stroke-width="10" stroke="url(&quot;#SvgjsLinearGradient1011&quot;)" stroke-linecap="round" class="Up"></path><path d="M504 474L503 98" stroke-width="6" stroke="url(&quot;#SvgjsLinearGradient1011&quot;)" stroke-linecap="round" class="Up"></path><path d="M489 507L488 124" stroke-width="8" stroke="url(&quot;#SvgjsLinearGradient1010&quot;)" stroke-linecap="round" class="Down"></path><path d="M1334 441L1333 604" stroke-width="10" stroke="url(&quot;#SvgjsLinearGradient1010&quot;)" stroke-linecap="round" class="Down"></path><path d="M1198 167L1197 402" stroke-width="10" stroke="url(&quot;#SvgjsLinearGradient1011&quot;)" stroke-linecap="round" class="Up"></path><path d="M999 67L998 -289" stroke-width="6" stroke="url(&quot;#SvgjsLinearGradient1010&quot;)" stroke-linecap="round" class="Down"></path><path d="M829 217L828 55" stroke-width="8" stroke="url(&quot;#SvgjsLinearGradient1011&quot;)" stroke-linecap="round" class="Up"></path><path d="M618 274L617 492" stroke-width="6" stroke="url(&quot;#SvgjsLinearGradient1010&quot;)" stroke-linecap="round" class="Down"></path><path d="M589 275L588 567" stroke-width="10" stroke="url(&quot;#SvgjsLinearGradient1010&quot;)" stroke-linecap="round" class="Down"></path><path d="M317 40L316 264" stroke-width="10" stroke="url(&quot;#SvgjsLinearGradient1010&quot;)" stroke-linecap="round" class="Down"></path></g><defs><mask id="SvgjsMask1009"><rect width="1440" height="560" fill="#ffffff"></rect></mask><linearGradient x1="0%" y1="0%" x2="0%" y2="100%" id="SvgjsLinearGradient1010"><stop stop-color="rgba(255, 255, 255, 0)" offset="0"></stop><stop stop-color="rgba(255, 255, 255, 0.24)" offset="1"></stop></linearGradient><linearGradient x1="0%" y1="100%" x2="0%" y2="0%" id="SvgjsLinearGradient1011"><stop stop-color="rgba(255, 255, 255, 0)" offset="0"></stop><stop stop-color="rgba(255, 255, 255, 0.24)" offset="1"></stop></linearGradient></defs></svg>